<?xml version="1.0" encoding="UTF-8" standalone="no"?>
<!-- Created with Inkscape (http://www.inkscape.org/) -->

<svg
   xmlns:dc="http://purl.org/dc/elements/1.1/"
   xmlns:cc="http://creativecommons.org/ns#"
   xmlns:rdf="http://www.w3.org/1999/02/22-rdf-syntax-ns#"
   xmlns:svg="http://www.w3.org/2000/svg"
   xmlns="http://www.w3.org/2000/svg"
   xmlns:sodipodi="http://sodipodi.sourceforge.net/DTD/sodipodi-0.dtd"
   xmlns:inkscape="http://www.inkscape.org/namespaces/inkscape"
   width="210mm"
   height="297mm"
   viewBox="0 0 210 297"
   version="1.1"
   id="svg8"
   inkscape:version="0.92.4 5da689c313, 2019-01-14"
   sodipodi:docname="dibujo-1.svg">
  <defs
     id="defs2" />
  <sodipodi:namedview
     id="base"
     pagecolor="#ffffff"
     bordercolor="#666666"
     borderopacity="1.0"
     inkscape:pageopacity="0.0"
     inkscape:pageshadow="2"
     inkscape:zoom="0.98994949"
     inkscape:cx="161.15701"
     inkscape:cy="661.3672"
     inkscape:document-units="mm"
     inkscape:current-layer="layer1"
     showgrid="false"
     inkscape:window-width="1920"
     inkscape:window-height="1027"
     inkscape:window-x="0"
     inkscape:window-y="0"
     inkscape:window-maximized="1" />
  <metadata
     id="metadata5">
    <rdf:RDF>
      <cc:Work
         rdf:about="">
        <dc:format>image/svg+xml</dc:format>
        <dc:type
           rdf:resource="http://purl.org/dc/dcmitype/StillImage" />
        <dc:title></dc:title>
      </cc:Work>
    </rdf:RDF>
  </metadata>
  <g
     inkscape:label="Capa 1"
     inkscape:groupmode="layer"
     id="layer1">
    <path
       style="fill:none;stroke:#000000;stroke-width:0.26458332px;stroke-linecap:butt;stroke-linejoin:miter;stroke-opacity:1"
       d="m 12.828938,101.09144 c 0.08909,-0.35636 0.178179,-0.71272 0.267269,-1.06908 0,-0.267274 -0.05242,-0.539734 0,-0.801814 0.03907,-0.19534 0.204274,-0.34555 0.26727,-0.53454 0.05634,-0.16903 0,-0.35636 0,-0.53454 0,-0.62363 0,-1.24725 0,-1.87088 0,-0.17818 -0.04322,-0.36168 0,-0.53454 0.04831,-0.19327 0.204273,-0.34555 0.267269,-0.53454 0.07889,-0.23667 -0.06623,-1.07141 0,-1.33635 0.04832,-0.19326 0.204274,-0.34555 0.26727,-0.53454 0.02817,-0.0845 -0.02817,-0.18275 0,-0.26727 0.063,-0.18899 0.218953,-0.34127 0.267269,-0.53454 0.04322,-0.17286 0,-0.35636 0,-0.53454 0,-0.0891 -0.03984,-0.18758 0,-0.26726 0.112691,-0.22539 0.454855,-0.29549 0.534539,-0.53454 0.05634,-0.16904 -0.05635,-0.36551 0,-0.53454 0.03984,-0.11953 0.210924,-0.15458 0.26727,-0.26727 0.125992,-0.25199 0.162638,-0.54024 0.267269,-0.80181 0.07399,-0.18497 0.204274,-0.34555 0.26727,-0.53454 0.02817,-0.0845 -0.03984,-0.18758 0,-0.26727 0.05635,-0.11269 0.210924,-0.15458 0.267269,-0.26727 0.03984,-0.0797 -0.02817,-0.18275 0,-0.26727 0.063,-0.18899 0.17818,-0.35636 0.26727,-0.53454 0.08909,-0.17818 0.156767,-0.36878 0.267269,-0.53454 0.139776,-0.20966 0.421849,-0.30916 0.534539,-0.53454 0.07969,-0.15936 -0.125992,-0.40854 0,-0.53454 0.063,-0.063 0.187585,0.0399 0.26727,0 0.886421,-0.88642 -0.251984,0.126 0.534539,-0.26726 0.225381,-0.1127 0.309157,-0.42185 0.534539,-0.53454 0.02278,-0.0114 1.046294,-0.0114 1.069078,0 0.112691,0.0563 0.154579,0.21092 0.267269,0.26727 0.07968,0.0398 0.187586,-0.0399 0.26727,0 0.112691,0.0563 0.154579,0.21092 0.26727,0.26727 0.159368,0.0797 0.37517,-0.0797 0.534539,0 0.107953,0.054 1.061067,1.06106 1.069078,1.06907 0.356359,0.35636 0.712719,0.71272 1.069077,1.06908 0.178181,0.17818 0.35636,0.35636 0.534541,0.53454 0.08909,0.0891 0.210923,0.15458 0.267269,0.26727 0.03984,0.0797 -0.03984,0.18758 0,0.26727 0.556156,1.11231 -0.01844,-0.28572 0.534537,0.26727 0.063,0.063 -0.03984,0.18759 0,0.26727 0.05635,0.11269 0.210926,0.15458 0.267272,0.26727 0.03984,0.0797 -0.03984,0.18758 0,0.26727 0.05635,0.11269 0.227428,0.14774 0.267269,0.26727 0.05634,0.16903 -0.04322,0.36168 0,0.53454 0.04831,0.19326 0.204274,0.34555 0.267268,0.53453 0.02817,0.0845 -0.03984,0.18759 0,0.26728 0.407528,0.81505 0.211881,-0.48883 0.534541,0.8018 0.04321,0.17286 -0.05635,0.36551 0,0.53454 0.03984,0.11953 0.227428,0.14775 0.267269,0.26727 0.08018,0.24055 -0.08018,0.56127 0,0.80181 0.063,0.18899 0.204274,0.34555 0.267269,0.53454 0.05634,0.16904 -0.05635,0.3655 0,0.53454 0.063,0.18899 0.156768,0.36878 0.267271,0.53454 0.06989,0.10483 0.227425,0.14774 0.267269,0.26727 0.05635,0.16903 -0.05635,0.3655 0,0.53454 0.03984,0.11952 0.197382,0.16243 0.267269,0.26726 0.221004,0.33151 0.313534,0.73758 0.53454,1.06908 0.153749,0.23063 0.593048,0.59305 0.801807,0.80181 0.08909,0.0891 0.178181,0.17818 0.267271,0.26727 0.08909,0.0891 0.154578,0.21093 0.267269,0.26727 0.07968,0.0398 0.187584,-0.0398 0.267269,0 0.225382,0.11269 0.309158,0.42185 0.53454,0.53454 0.07968,0.0398 0.187584,0.0398 0.267269,0 0.06786,-0.0339 0.740714,-0.72035 0.801809,-0.80181 0.192731,-0.25697 0.341807,-0.54483 0.534538,-0.80181 0.0756,-0.10079 0.178181,-0.17818 0.267269,-0.26727 0.08909,-0.0891 0.210926,-0.15457 0.267271,-0.26727 0.03984,-0.0797 -0.063,-0.20427 0,-0.26726 0.55299,-0.55299 -0.02162,0.84504 0.534538,-0.26727 0.329136,-0.65828 -0.775811,0.24127 0.267269,-0.80181 0.063,-0.063 0.204274,0.063 0.267271,0 0.675095,-0.6751 0.102701,-0.30811 0.267269,-0.80181 0.063,-0.18899 0.178179,-0.35636 0.267269,-0.53454 0.08909,-0.17818 0.156768,-0.36879 0.267269,-0.53454 0.06989,-0.10483 0.210926,-0.15458 0.267271,-0.26727 0.03984,-0.0797 -0.03984,-0.18758 0,-0.26727 0.112689,-0.22538 0.394764,-0.32487 0.534538,-0.53454 0.20388,-0.30582 0.33066,-0.76326 0.53454,-1.06908 0.06989,-0.10483 0.197382,-0.16243 0.267269,-0.26727 0.110503,-0.16575 0.156766,-0.36878 0.267269,-0.53454 0.06989,-0.10483 0.197382,-0.16243 0.267269,-0.26726 0.221006,-0.33151 0.295487,-0.75034 0.53454,-1.06908 0.226785,-0.30238 0.592146,-0.48731 0.80181,-0.80181 0.221003,-0.33151 0.313533,-0.73757 0.534537,-1.06908 0.06989,-0.10483 0.227428,-0.14774 0.267269,-0.26727 0.05635,-0.16904 -0.05634,-0.3655 0,-0.53454 0.01106,-0.0332 0.755957,-0.77888 0.801809,-0.80181 0.07969,-0.0398 0.178181,0 0.267269,0 0.08909,0 0.178181,0 0.267272,0 0.13976,0 0.998802,-0.0351 1.069078,0 0.112691,0.0563 0.178178,0.17818 0.267269,0.26727 0.08909,0.0891 0.210923,0.15458 0.267268,0.26727 0.03984,0.0797 -0.03984,0.18759 0,0.26727 0.05635,0.11269 0.178181,0.17818 0.267272,0.26727 0.08909,0.0891 0.154577,0.21093 0.267269,0.26727 0.07968,0.0399 0.204271,-0.063 0.267269,0 0.140864,0.14087 0.156768,0.36879 0.267268,0.53454 0.139777,0.20966 0.394764,0.32488 0.534541,0.53454 0.1105,0.16575 0.156765,0.36879 0.267269,0.53454 0.139776,0.20966 0.421849,0.30916 0.53454,0.53454 0.07968,0.15937 -0.07968,0.37517 0,0.53454 0.556154,1.11231 -0.01844,-0.28572 0.534538,0.26727 0.140864,0.14086 0.156768,0.36878 0.267269,0.53453 0.06989,0.10484 0.197381,0.16244 0.267271,0.26728 0.221004,0.3315 0.313534,0.73757 0.534538,1.06907 0.06989,0.10483 0.210923,0.15458 0.267269,0.26727 0.03984,0.0797 0,0.17818 0,0.26727 0.08909,0.17818 0.147743,0.37517 0.267271,0.53454 0.151188,0.20159 0.383347,0.33295 0.534538,0.53454 0.119525,0.15937 0.156768,0.36879 0.267269,0.53454 0.06989,0.10483 0.178181,0.17818 0.267271,0.26727 0.08909,0.17818 0.156766,0.36878 0.267269,0.53454 0.06989,0.10483 0.197382,0.16243 0.267269,0.26727 0.110503,0.16575 0.156768,0.36878 0.267269,0.53454 0.0741,0.11114 0.973489,1.02128 1.069078,1.06907 0.291446,0.14573 0.348265,-0.14308 0.53454,-0.26726 0.165754,-0.11051 0.363717,-0.16478 0.534538,-0.26727 0.275444,-0.16527 0.514503,-0.39089 0.801809,-0.53454 0.251984,-0.126 0.540231,-0.16264 0.801809,-0.26727 0.552741,-0.2211 1.056325,-0.56726 1.603616,-0.80181 0.440973,-0.18899 0.907235,-0.31998 1.336349,-0.53454 0.107953,-0.054 1.061067,-1.06107 1.069078,-1.06908 0.178179,-0.17818 0.35636,-0.35636 0.534538,-0.53454 0.08909,-0.0891 0.197382,-0.16244 0.267272,-0.26727 0.778205,-1.16731 -0.118457,0.0881 0.267269,-1.06908 0.03984,-0.11952 0.227427,-0.14774 0.267268,-0.26726 0.05635,-0.16904 -0.04321,-0.36168 0,-0.53454 0.04832,-0.19327 0.218954,-0.34128 0.267269,-0.53454 0.05965,-0.23862 0,-1.02698 0,-1.33635 0,-0.8909 0,-1.7818 0,-2.6727 0,-0.74116 -0.03984,0.42664 0.267272,-0.8018 0.04321,-0.17286 0,-0.35636 0,-0.53454 0,-0.17818 0,-0.35636 0,-0.53454 0,-0.53454 0,-1.06908 0,-1.60362 0,-0.26727 -0.06482,-0.54252 0,-0.80181 0.04831,-0.19326 0.218953,-0.34128 0.267269,-0.53454 0.04321,-0.17286 -0.06618,-0.3691 0,-0.53454 0.119298,-0.29824 0.415242,-0.50356 0.534537,-0.8018 0.06618,-0.16544 -0.04321,-0.36168 0,-0.53455 0.04832,-0.19326 0.204274,-0.34555 0.267272,-0.53453 0.02817,-0.08452 -0.03984,-0.187587 0,-0.267272 0.330263,-0.660532 0.267269,0.09225 0.267269,-0.53454 0,-0.32625 -0.103712,-0.616318 0.267268,-0.801809 0.07968,-0.03984 0.182751,-0.02817 0.267269,0 0.18899,0.063 0.345551,0.204274 0.534541,0.267271 0.169034,0.05635 0.375168,-0.07968 0.534537,0 0.112692,0.05635 0.154581,0.210923 0.267272,0.267269 0.159366,0.07969 0.375168,-0.07968 0.534538,0 1.112311,0.556157 -0.285721,-0.01844 0.267268,0.534538 0.552993,0.552993 -0.02162,-0.845042 0.534541,0.267271 0.03984,0.07968 -0.02817,0.182751 0,0.267272 0.06299,0.18898 0.178178,0.35636 0.267269,0.53453 0.08909,0.17819 0.156768,0.36879 0.267268,0.53455 0.326023,0.48903 0.340755,0.0267 0.534541,0.8018 0.06482,0.25929 -0.08452,0.54826 0,0.80181 0.06299,0.18899 0.178178,0.35636 0.267269,0.53454 0.08909,0.17818 0.156768,0.36879 0.267269,0.53454 0.117059,0.17559 0.753591,0.65715 0.801809,0.80181 0.05634,0.16904 -0.07969,0.37517 0,0.53454 0.123473,0.24694 1.140753,1.07555 1.336347,1.33635 0.324572,0.43276 0.125801,0.52931 0.53454,0.8018 0.165754,0.11051 0.375171,0.14775 0.534538,0.26727 0.201588,0.15119 0.356359,0.35636 0.53454,0.53454 0.178178,0.17818 0.356359,0.35636 0.534538,0.53454 0.178181,0.17818 0.356359,0.35636 0.53454,0.53454 0.08909,0.0891 0.197382,0.16244 0.267269,0.26727 0.110503,0.16575 0.126407,0.39368 0.267269,0.53454 0.063,0.063 0.204274,-0.063 0.267271,0 0.063,0.063 -0.03984,0.18759 0,0.26727 0.05635,0.11269 0.178179,0.17818 0.267269,0.26727 0.08909,0.0891 0.178178,0.17818 0.267269,0.26727 0.178181,0.17818 0.356359,0.35636 0.53454,0.53454 0.08909,0.0891 0.162439,0.19738 0.267269,0.26727 0.165754,0.1105 0.368787,0.15676 0.534541,0.26727 0.209661,0.13977 0.309155,0.42184 0.534537,0.53454 0.07968,0.0398 0.178181,0 0.267269,0 0.178181,0 0.356359,0 0.53454,0 0.35636,0 0.717566,0.0586 1.069078,0 2.017078,-0.33618 0.526103,0.006 1.336347,-0.53454 0.165754,-0.11051 0.368787,-0.15677 0.534541,-0.26727 0.10483,-0.0699 0.154577,-0.21093 0.267269,-0.26727 0.07968,-0.0399 0.21785,0.0741 0.267268,0 0.156274,-0.23441 0.122323,-0.56023 0.267269,-0.80181 0.45642,-0.7607 0.594971,-0.24173 0.801809,-1.06908 0.04321,-0.17286 -0.05635,-0.3655 0,-0.53454 0.03984,-0.11953 0.220478,-0.15029 0.267269,-0.26727 0.288878,-0.72219 0.267272,-0.80685 0.267272,-1.33635 0,-0.17818 -0.03495,-0.35982 0,-0.53454 0.05525,-0.27625 0.212018,-0.52555 0.267269,-0.8018 0.03494,-0.17472 0,-0.35636 0,-0.53454 0,-0.26727 0,-0.53454 0,-0.80181 0,-0.8909 0,-1.7818 0,-2.6727 0,-0.44545 -0.08736,-0.89954 0,-1.33635 0.03907,-0.19534 0.204274,-0.34555 0.267269,-0.53453 0.02817,-0.08452 0,-0.178184 0,-0.267272 0,-0.44545 0,-0.890899 0,-1.336349 0,-0.267269 -0.0378,-0.537224 0,-0.801807 0.05195,-0.363635 0.19523,-0.708885 0.267268,-1.069078 0.01746,-0.08736 -0.02817,-0.182753 0,-0.267271 0.063,-0.188987 0.228203,-0.339196 0.267272,-0.534538 0.05241,-0.26208 -0.04394,-0.538176 0,-0.801809 0.04631,-0.277895 0.178178,-0.534538 0.267269,-0.801809 0.08909,-0.267269 0.162639,-0.540232 0.267269,-0.801807 0.07399,-0.184965 0.218953,-0.341278 0.267268,-0.53454 0.04322,-0.172861 -0.05634,-0.365504 0,-0.534538 0.03984,-0.119528 0.227428,-0.147743 0.267272,-0.267272 0.05635,-0.169034 -0.03494,-0.359817 0,-0.534537 0.110088,-0.550445 0.296966,-0.861203 0.534538,-1.33635 0.08909,-0.178178 0.218953,-0.341275 0.267268,-0.534538 0.04322,-0.17286 -0.04321,-0.36168 0,-0.53454 0.04832,-0.193262 0.193287,-0.349575 0.267272,-0.534538 0.104629,-0.261577 0.141277,-0.549825 0.267269,-0.801809 0.143653,-0.287306 0.415242,-0.503565 0.534538,-0.801809 0.06617,-0.165433 -0.03494,-0.359817 0,-0.534538 0.08909,-0.267269 0.178181,-0.53454 0.267271,-0.801809 0.08909,-0.08909 0.227425,-0.147743 0.267269,-0.267269 0.05635,-0.169037 -0.04322,-0.36168 0,-0.53454 0.654807,-1.309611 0.111776,-0.02434 0.267269,-0.801807 0.347197,-1.735976 0.121115,-0.436425 0.801809,-2.138156 0.03309,-0.08272 -0.02817,-0.182753 0,-0.267271 0.063,-0.188987 0.204274,-0.345551 0.267269,-0.534538 0.02817,-0.08452 -0.03984,-0.187584 0,-0.267269 0.143653,-0.287308 0.415242,-0.503565 0.53454,-0.801809 0.06617,-0.165436 -0.05635,-0.365503 0,-0.53454 0.03984,-0.119526 0.178178,-0.178179 0.267269,-0.267269 0.178178,-0.178179 0.383349,-0.332952 0.534538,-0.534538 0.119528,-0.159369 0.204274,-0.345551 0.267271,-0.53454 0.02817,-0.08452 -0.063,-0.204274 0,-0.267269 0.063,-0.063 0.187584,0.03984 0.267269,0 0.112691,-0.05635 0.154578,-0.210926 0.267269,-0.267269 0.07968,-0.03984 0.187587,0.03984 0.267271,0 0.112689,-0.05635 0.147741,-0.227428 0.267269,-0.267271 0.169035,-0.05635 0.35636,0 0.534538,0 0.08909,0 0.182753,-0.02817 0.267271,0 0.883756,0.294587 0.268955,0.344355 1.336347,0.801809 0.337627,0.144698 0.731452,0.122573 1.069078,0.267269 0.295246,0.126534 0.503566,0.415242 0.80181,0.53454 0.165433,0.06618 0.356359,0 0.534537,0 0.267269,0.178178 0.514504,0.390885 0.801809,0.534538 0.251984,0.125992 0.560229,0.122322 0.80181,0.267271 0.109593,0.06575 1.253871,1.226378 1.336347,1.336347 0.119525,0.159369 0.147743,0.375169 0.267268,0.534538 0.151191,0.201588 0.38335,0.332951 0.534541,0.53454 0.239051,0.318738 0.252812,0.78735 0.534537,1.069078 0.140865,0.140864 0.393677,0.126405 0.534541,0.267269 0.0096,0.0096 0.506767,1.022792 0.534538,1.069078 0.178181,0.267269 0.356359,0.53454 0.53454,0.801809 0.08909,0.08909 0.197382,0.162439 0.267269,0.267269 0.221004,0.331507 0.313537,0.737571 0.534537,1.069078 0.0699,0.104833 0.22048,0.150289 0.26727,0.267269 0.13642,0.341056 0.13085,0.728025 0.26727,1.069078 0.0468,0.116983 0.19738,0.162438 0.26727,0.267272 0.1105,0.165753 0.19329,0.349575 0.26727,0.534537 0.88642,2.659264 -0.25199,-0.629959 0.53454,1.336347 0.10463,0.261578 0.16264,0.540234 0.26727,0.801809 0.14797,0.369928 0.43791,0.682554 0.53454,1.069078 0.0432,0.172861 -0.0564,0.365504 0,0.534541 0.0398,0.119525 0.17818,0.178178 0.26727,0.267269 0.0891,0.267268 0.21202,0.525552 0.26727,0.801809 0.0349,0.17472 0,0.356359 0,0.534538 0,0.672711 -0.0349,1.165722 0.26727,1.870887 0.0993,0.231611 0.435273,0.302929 0.534533,0.53454 1.37969,3.219254 0.0525,0.529939 0.26727,1.603616 0.072,0.360193 0.21533,0.705443 0.26728,1.069078 0.0378,0.264583 0,0.53454 0,0.801812 0,0.0891 -0.0282,0.18275 0,0.26727 0.063,0.18899 0.24255,0.33686 0.26726,0.53454 0.0663,0.53041 0,1.06907 0,1.60361 0,0.17818 -0.0563,0.36551 0,0.53454 0.0399,0.11953 0.22743,0.14775 0.26727,0.26727 0.11269,0.33807 -0.0699,0.71964 0,1.06908 -0.53676,0.47588 0.44545,0.80181 0.53454,1.06908 0.16904,0.23984 -0.0845,0.54825 0,0.80181 0.126,0.37797 0.40855,0.6911 0.53454,1.06907 0.0282,0.0845 -0.0282,0.18275 0,0.26727 0.063,0.18899 0.21895,0.34128 0.26727,0.53454 0.0432,0.17286 -0.0564,0.3655 0,0.53454 0.0398,0.11953 0.19738,0.16244 0.26727,0.26727 0.90013,1.3502 0.002,0.006 0.26727,0.80181 0.12599,0.37798 0.43791,0.68255 0.53454,1.06908 0,1.77284 -0.12599,-0.37798 0.26727,0.80181 0.0563,0.16903 -0.0563,0.3655 0,0.53453 0.0797,0.23906 0.45485,0.29549 0.53454,0.53454 0.0563,0.16904 -0.0349,0.35982 0,0.53454 -0.0613,0.53672 0.41818,0.87091 0.53454,1.33635 0.0432,0.17286 -0.0563,0.36551 0,0.53454 0.0398,0.11953 0.21092,0.15458 0.26727,0.26727 0.0797,0.15937 -0.0563,0.3655 0,0.53454 0.063,0.18899 0.20427,0.34555 0.26727,0.53454 0.0563,0.16903 -0.0563,0.3655 0,0.53454 0.0891,0.17818 0.17818,0.35636 0.26726,0.53453 0,0.0891 -0.0282,0.18276 0,0.26728 0.063,0.18898 0.21896,0.34127 0.26728,0.53453 0.0432,0.17286 -0.0432,0.36168 0,0.53454 0.0483,0.19327 0.21895,0.34128 0.26726,0.53454 0.0432,0.17286 -0.0432,0.36168 0,0.53454 0.0483,0.19326 0.21896,0.34128 0.26727,0.53454 0.0432,0.17286 -0.0563,0.365504 0,0.534544 0.0399,0.11953 0.19739,0.16244 0.26727,0.26727 0.58884,0.1346 0.14128,0.54982 0.26727,0.80181 0.11269,0.22538 0.39477,0.32487 0.53454,0.53454 0.1105,0.16575 0.15677,0.36878 0.26727,0.53454 0.087,0.13052 0.93856,0.98206 1.06908,1.06907 0.16575,0.11051 0.36878,0.15677 0.53454,0.26727 0.10483,0.0699 0.16244,0.19739 0.26727,0.26727 0.46067,0.30711 0.404,0.26727 0.80181,0.26727 0.0891,0 0.18758,0.0398 0.26727,0 0.31908,-0.15954 0.88589,-1.50452 1.06907,-1.87088 0.75714,-1.51427 -0.0996,0.39842 0.26727,-1.06908 0.0483,-0.19327 0.20428,-0.34555 0.26727,-0.53454 0.0282,-0.0845 -0.0282,-0.18275 0,-0.26727 0.063,-0.18899 0.21896,-0.34128 0.26727,-0.53454 0.0432,-0.172864 -0.0563,-0.365504 0,-0.534544 0.0398,-0.11952 0.22743,-0.14774 0.26727,-0.26727 0.0563,-0.16903 -0.0432,-0.36168 0,-0.53454 0.0483,-0.19326 0.20428,-0.34555 0.26727,-0.53454 0.0763,-0.22896 -0.0589,-0.83329 0,-1.06907 0.0483,-0.19327 0.21896,-0.34128 0.26727,-0.53454 0.0432,-0.17286 0,-0.35636 0,-0.53454 0.0891,-0.17818 0.20427,-0.34555 0.26727,-0.53454 0.0563,-0.16904 -0.12599,-0.40855 0,-0.53454 0.063,-0.063 0.20427,0.063 0.26727,0 0.50476,-0.50476 0.12613,-0.50451 0.26727,-1.06908 0.0483,-0.19326 0.20427,-0.34555 0.26727,-0.53454 0.0282,-0.0845 -0.0398,-0.18758 0,-0.26727 0.40753,-0.81505 0.21188,0.48882 0.53454,-0.80181 0.0432,-0.17286 -0.0563,-0.3655 0,-0.53453 0.0398,-0.11953 0.19738,-0.16244 0.26727,-0.26728 0.96893,-1.93785 -0.28173,0.4226 0.53454,-0.8018 0.1105,-0.16576 0.15677,-0.36879 0.26727,-0.53454 0.0699,-0.10483 0.21092,-0.15458 0.26727,-0.26727 0.0398,-0.0797 -0.063,-0.20428 0,-0.26727 0.14086,-0.14086 0.35636,-0.17818 0.53453,-0.26727 0.35636,-0.17818 0.71272,-0.35636 1.06908,-0.53454 0.35636,-0.17818 0.69111,-0.40855 1.06908,-0.53454 0.22888,-0.0763 1.07375,0.0438 1.33635,0 0.36233,-0.0604 0.70888,-0.19523 1.06908,-0.26727 0.32195,-0.0644 1.22685,0 1.60361,0 0.17818,0 0.35982,0.035 0.53454,0 0.27626,-0.0553 0.52292,-0.22743 0.80181,-0.26727 0.70556,-0.10079 1.4326,0.1008 2.13816,0 0.27889,-0.0398 0.52226,-0.23232 0.80181,-0.26727 0.44201,-0.0553 0.89089,0 1.33634,0 0.8909,0 1.78377,0.0593 2.6727,0 0.45326,-0.0302 0.88558,-0.21092 1.33635,-0.26727 0.2652,-0.0331 0.53454,0 0.80181,0 0.80181,0 1.60361,0 2.40542,0 1.24726,0 2.49452,0 3.74178,0 0.26726,0 0.53722,-0.0378 0.8018,0 0.36364,0.052 0.70545,0.21533 1.06908,0.26727 0.35278,0.0504 0.71272,0 1.06908,0 0.0891,0 0.17818,0 0.26727,0 0.0891,0 0.20427,-0.063 0.26727,0 0.063,0.063 -0.063,0.20428 0,0.26727 0.063,0.063 0.17818,0 0.26727,0 0.17818,0.17818 0.37712,0.33778 0.53454,0.53454 0.20066,0.25083 0.3074,0.57468 0.53454,0.80181 0.71271,0.71272 0.44545,-0.26727 0.8018,0.80181 0.26521,0.79561 -0.63286,-0.54839 0.26727,0.80181 0.0699,0.10483 0.21093,0.15458 0.26727,0.26727 0.0399,0.0797 -0.0398,0.18758 0,0.26727 0.0564,0.11269 0.21093,0.15458 0.26727,0.26726 0.18433,0.36866 -0.32367,0.23907 0.26727,0.53454 0.0797,0.0399 0.26727,-0.0891 0.26727,0 0,0.0891 -0.35636,0 -0.26727,0 0.62363,0 1.24726,0 1.87089,0 0.26727,0 0.54252,0.0648 0.80181,0 0.12223,-0.0305 0.16243,-0.19738 0.26727,-0.26726 0.16575,-0.11051 0.34555,-0.20428 0.53454,-0.26728 0.16903,-0.0563 0.35635,0 0.53454,0 0.44545,0 0.89089,0 1.33634,0 0.007,0 2.00343,-0.0337 2.13816,0 0.12223,0.0306 0.15458,0.21093 0.26727,0.26728 0.0797,0.0398 0.20427,-0.063 0.26727,0 0.063,0.063 -0.0557,0.1977 0,0.26726 0.31482,0.39354 0.74644,0.68192 1.06908,1.06908 0.12753,0.15304 0.14282,0.37898 0.26727,0.53454 0.54757,0.68447 1.32331,1.18642 1.87088,1.87089 0.12445,0.15556 0.15677,0.36878 0.26727,0.53454 0.0699,0.10483 0.17818,0.17818 0.26727,0.26727 0.0891,0.17818 0.15677,0.36878 0.26727,0.53453 0.20559,0.3084 0.59622,0.49343 0.80181,0.80181 0.1105,0.16576 0.15677,0.36879 0.26727,0.53454 0.0699,0.10483 0.19738,0.16244 0.26727,0.26727 0.221,0.33151 0.31353,0.73757 0.53454,1.06908 0.13977,0.20966 0.45485,0.29549 0.53454,0.534544 0.0563,0.16904 -0.0563,0.3655 0,0.53454 0.0398,0.11952 0.17818,0.17818 0.26727,0.26727 0.0891,0.0891 0.15458,0.21092 0.26727,0.26727 0.0797,0.0398 0.20427,-0.063 0.26727,0 0.22713,0.22713 0.36927,0.52636 0.53453,0.80181 0.20499,0.34164 0.38657,0.69915 0.53454,1.06907 0.10463,0.26158 0.14128,0.54983 0.26727,0.80181 0.0563,0.11269 0.19739,0.16244 0.26727,0.26727 0.22101,0.33151 0.32955,0.72744 0.53454,1.06908 -0.0552,0.54744 0.56613,0.71557 0.80181,1.06908 0.22101,0.33151 0.31354,0.73757 0.53454,1.06908 0.0699,0.10483 0.17818,0.17818 0.26727,0.26727 0.0891,0.17818 0.15677,0.36878 0.26727,0.53454 0.0699,0.10483 0.21092,0.15458 0.26727,0.26726 0.0398,0.0797 -0.063,0.20428 0,0.26728 0.063,0.063 0.20427,-0.063 0.26727,0 0.063,0.063 -0.0399,0.18758 0,0.26726 0.0563,0.1127 0.17818,0.17818 0.26727,0.26727 0.26727,0.26727 0.53454,0.53454 0.80181,0.80181 0.17817,0.17818 0.39476,0.32488 0.53453,0.53454 0.11051,0.16575 0.12641,0.39368 0.26727,0.53454 1.0794,1.0794 0.87075,0.64661 2.13816,1.06908 1.65897,0.55299 -0.88828,-0.0216 1.33635,0.53454 0.0864,0.0216 0.18758,-0.0398 0.26727,0 0.11269,0.0563 0.15458,0.21092 0.26727,0.26727 0.15936,0.0797 0.53454,-0.17818 0.53454,0 0,0.0246 -0.88642,0.0282 0,-0.26727 0.16903,-0.0564 0.35982,0.0349 0.53454,0 0.55044,-0.11009 0.8612,-0.29697 1.33634,-0.53454 0.17818,-0.0891 0.34555,-0.20428 0.53454,-0.26727 0.16904,-0.0564 0.37517,0.0797 0.53454,0 0.11269,-0.0564 0.15458,-0.21093 0.26727,-0.26727 0.17363,-0.0868 1.16682,0.0848 1.33635,0 0.11269,-0.0563 0.16244,-0.19738 0.26727,-0.26727 0.33151,-0.221 0.73757,-0.31353 1.06908,-0.53454 0.10483,-0.0699 0.15457,-0.21092 0.26727,-0.26727 0.0797,-0.0398 0.18758,0.0398 0.26726,0 0.1127,-0.0563 0.17819,-0.17818 0.26727,-0.26727 0.26727,-0.26727 0.56569,-0.50666 0.80181,-0.80181 0.12445,-0.15555 0.17818,-0.35636 0.26727,-0.53454 0.17818,-0.35635 0.31354,-0.73757 0.53454,-1.06907 0.0699,-0.10484 0.19738,-0.16244 0.26727,-0.26727 0.1105,-0.16576 0.12641,-0.39368 0.26727,-0.53454 0.14086,-0.14087 0.35636,-0.17818 0.53454,-0.26727 0.17818,-0.0891 0.35636,-0.17818 0.53454,-0.26727 1.93786,-0.96893 -0.42259,0.28173 0.80181,-0.53454 0.16575,-0.1105 0.39367,-0.12641 0.53454,-0.26727 0.063,-0.063 -0.063,-0.20427 0,-0.26727 0.063,-0.063 0.18758,0.0398 0.26727,0 0.071,-0.0355 0.76632,-0.73085 0.8018,-0.80181 0.0399,-0.0797 -0.063,-0.20427 0,-0.26727 0.14087,-0.14086 0.39368,-0.1264 0.53454,-0.26727 0.14087,-0.14086 0.12641,-0.39367 0.26727,-0.53454 0.22714,-0.22713 0.54484,-0.34181 0.80181,-0.53454 0.10079,-0.0756 0.16244,-0.19738 0.26727,-0.26726 0.16575,-0.11051 0.39368,-0.12641 0.53454,-0.26727 0.063,-0.063 -0.0891,-0.26727 0,-0.26727 0.0891,0 0,0.17818 0,0.26727"
       id="path815"
       inkscape:connector-curvature="0" />
  </g>
</svg>
