<?xml version="1.0" encoding="UTF-8" standalone="no"?>
<!-- Created with Inkscape (http://www.inkscape.org/) -->

<svg
   xmlns:dc="http://purl.org/dc/elements/1.1/"
   xmlns:cc="http://creativecommons.org/ns#"
   xmlns:rdf="http://www.w3.org/1999/02/22-rdf-syntax-ns#"
   xmlns:svg="http://www.w3.org/2000/svg"
   xmlns="http://www.w3.org/2000/svg"
   xmlns:sodipodi="http://sodipodi.sourceforge.net/DTD/sodipodi-0.dtd"
   xmlns:inkscape="http://www.inkscape.org/namespaces/inkscape"
   width="210mm"
   height="297mm"
   viewBox="0 0 210 297"
   version="1.1"
   id="svg4552"
   inkscape:version="0.92.4 5da689c313, 2019-01-14"
   sodipodi:docname="80db.svg">
  <defs
     id="defs4546" />
  <sodipodi:namedview
     id="base"
     pagecolor="#ffffff"
     bordercolor="#666666"
     borderopacity="1.0"
     inkscape:pageopacity="0.0"
     inkscape:pageshadow="2"
     inkscape:zoom="0.7"
     inkscape:cx="304.58399"
     inkscape:cy="763.22158"
     inkscape:document-units="mm"
     inkscape:current-layer="layer1"
     showgrid="false"
     inkscape:window-width="1920"
     inkscape:window-height="1027"
     inkscape:window-x="0"
     inkscape:window-y="0"
     inkscape:window-maximized="1" />
  <metadata
     id="metadata4549">
    <rdf:RDF>
      <cc:Work
         rdf:about="">
        <dc:format>image/svg+xml</dc:format>
        <dc:type
           rdf:resource="http://purl.org/dc/dcmitype/StillImage" />
        <dc:title></dc:title>
      </cc:Work>
    </rdf:RDF>
  </metadata>
  <g
     inkscape:label="Capa 1"
     inkscape:groupmode="layer"
     id="layer1">
    <path
       style="fill:none;stroke:#000000;stroke-width:1.30820835px;stroke-linecap:butt;stroke-linejoin:miter;stroke-opacity:1"
       d="m 37.817116,82.111467 c 0.401981,0.15921 0.762972,0.131027 1.177857,0.131027 0.0445,0 0.131027,0.0445 0.131027,0 0,-0.0445 -0.174537,0 -0.131027,0 0.654344,0 1.308736,0 1.963079,0 0.268482,0 0.676692,0.03461 0.916101,0 0.524552,-0.08059 1.043369,-0.199755 1.570443,-0.26156 0.216565,-0.02472 0.436097,0 0.654393,0 0.08702,0 0.175526,0.01483 0.261559,0 0.177504,-0.02967 0.347097,-0.09543 0.523465,-0.131027 0.0445,-0.0099 0.08949,0.01483 0.131026,0 0.09246,-0.02967 0.169099,-0.09988 0.26156,-0.131026 0.03956,-0.01483 0.09988,0.02967 0.131027,0 0.02967,-0.02967 0.0445,-0.131027 0,-0.131027 -0.06181,0 -0.192338,0.131027 -0.131027,0.131027 0.09741,0 0.192832,-0.0618 0.261559,-0.131027 0.02967,-0.02967 0.0445,-0.131027 0,-0.131027 -0.0445,0 0,0.08752 0,0.131027 0,0.0445 0,0.08752 0,0.131027 0,0.218048 0,0.436097 0,0.654343 0,0.0445 -0.02967,0.09988 0,0.131027 0.06922,0.06873 0.192832,0.06181 0.261559,0.131027 0.02967,0.02967 0,0.174537 0,0.131026 0,-0.815184 -0.07812,0.286776 0.26156,-0.392586 0.05834,-0.117182 0,-0.261559 0,-0.392586 0,-0.305564 0,-0.610733 0,-0.9161 0.0445,0 0.09988,0.02967 0.131026,0 0.02967,-0.02967 -0.01978,-0.09197 0,-0.131027 0.02967,-0.05538 0.08702,-0.08752 0.131027,-0.131027 0.0445,-0.0445 0.07565,-0.103338 0.131027,-0.131027 0.03956,-0.01978 0.09197,0.01978 0.131027,0 0.05538,-0.02967 0.0712,-0.115699 0.131027,-0.131027 0.127071,-0.02967 0.268481,0.03956 0.392586,0 0.03956,-0.01483 -0.02967,-0.09988 0,-0.131026 0.02967,-0.02967 0.09988,0.02967 0.131027,0 0.02967,-0.02967 -0.02967,-0.09988 0,-0.131027 0.08801,-0.08801 0.173549,0.08801 0.261559,0 0.02967,-0.02967 -0.01978,-0.09197 0,-0.131027 0.05538,-0.11026 0.198271,-0.155749 0.261559,-0.261559 0.100372,-0.167121 0.144872,-0.36737 0.26156,-0.523515 0.02472,-0.03461 0.09988,0.02967 0.131027,0 0.02967,-0.02967 -0.02967,-0.09988 0,-0.131026 0.02967,-0.02967 0.09988,0.02967 0.131026,0 0.02967,-0.02967 -0.02967,-0.09988 0,-0.131027 0.06873,-0.06873 0.192832,-0.06181 0.26156,-0.131027 0.02967,-0.02967 -0.02967,-0.09988 0,-0.131027 0.02967,-0.02967 0.09988,0.02967 0.131027,0 0.368358,-0.0099 0.03461,-0.295181 0.131026,-0.392586 0.02967,-0.02967 0.09988,0.02967 0.131027,0 0.02967,-0.02967 -0.02967,-0.09988 0,-0.131027 0.02967,-0.02967 0.09988,0.02967 0.131027,0 0.02967,-0.02967 -0.02967,-0.09988 0,-0.131027 0.02967,-0.02967 0.09988,0.02967 0.131027,0 0.02967,-0.02967 -0.02967,-0.09988 0,-0.131027 0.02967,-0.02967 0.09197,0.01978 0.131027,0 0.05538,-0.02967 0.07565,-0.103338 0.131027,-0.131027 0.03955,-0.01978 0.09988,0.02967 0.131027,0 0.02967,-0.02967 -0.02967,-0.09988 0,-0.131026 0.02967,-0.02967 0.09988,0.02967 0.131026,0 0.510758,-0.510758 -0.02967,-0.07021 0.131027,-0.392587 0.02967,-0.05538 0.08702,-0.08702 0.131027,-0.131026 0.08702,-0.08702 0.193327,-0.15921 0.261559,-0.26156 0.02472,-0.03461 -0.02967,-0.09988 0,-0.131027 0.02967,-0.02967 0.09197,0.01978 0.131027,0 0.05538,-0.02967 0.07565,-0.103338 0.131027,-0.131026 0.03955,-0.01978 0.09988,0.02967 0.131027,0 0.02967,-0.02967 -0.02967,-0.09988 0,-0.131027 0.02967,-0.02967 0.09197,0.01978 0.131027,0 0.544627,-0.272437 -0.139927,0.0099 0.131027,-0.26156 0.02967,-0.02967 0.09988,0.02967 0.131027,0 0.06873,-0.06922 0.0618,-0.192831 0.131026,-0.261559 0.02967,-0.02967 0.09988,0.02967 0.131027,0 0.06181,-0.06181 -0.0618,-0.200248 0,-0.261555 0.02967,-0.0297 0.09197,0.01977 0.131027,0 0.05439,-0.0247 0.355503,-0.33721 0.392586,-0.39259 0.05389,-0.0811 0.06181,-0.19283 0.131027,-0.26156 0.15921,-0.15921 0.292215,-0.0613 0.392586,-0.26156 0.09048,-0.18047 -0.158221,-0.11718 0.131027,-0.26156 0.03956,-0.0198 0.09988,0.0297 0.131027,0 0.137949,-0.13795 0.12361,-0.38566 0.261559,-0.52351 0.02967,-0.0297 0.09493,0.0247 0.131027,0 0.538001,-0.37232 1.07091,-0.75516 1.570444,-1.17786 0.07466,-0.0628 0.06181,-0.19283 0.131026,-0.26156 0.02967,-0.0297 0.09988,0.0297 0.131027,0 0.06922,-0.0687 0.06181,-0.19283 0.131027,-0.26156 0.02967,-0.0297 0.09988,0.0297 0.131027,0 0.0618,-0.0618 -0.06181,-0.20025 0,-0.26156 0.0618,-0.0618 0.261559,0.0875 0.261559,0 0,-0.0445 -0.131027,-0.0445 -0.131027,0 0,0.0618 0.07961,0.0969 0.131027,0.13103 0.299137,0.19926 0.267987,0.0198 0.392586,0.39259 0.02967,0.0826 -0.06181,0.20024 0,0.26156 0.08702,0.087 0.174538,-0.087 0.26156,0 0.02967,0.0297 -0.02967,0.0999 0,0.13102 0.06873,0.0687 0.192832,0.0618 0.261559,0.13103 0.02967,0.0297 -0.02967,0.0999 0,0.13103 0.02967,0.0297 0.09988,-0.0297 0.131027,0 0.02967,0.0297 -0.02967,0.0999 0,0.13102 0.102349,0.10235 0.227443,-0.11372 0.261559,-0.13102 0.03955,-0.0198 0.08752,0 0.131027,0 0.349075,0 -0.0445,-0.0445 0.131027,0.13102 0.02472,0.0247 0.60658,-0.0247 0.654343,0 0.03955,0.0198 -0.03956,0.11718 0,0.13103 0.124105,0.0395 0.264526,-0.0247 0.392586,0 0.09592,0.0198 0.169099,0.0999 0.261559,0.13103 0.07268,0.0247 0.342154,-0.0346 0.392587,0 0.102843,0.0682 0.174537,0.17453 0.261559,0.26156 0.174537,0.0445 0.362425,0.0504 0.523514,0.13102 0.03956,0.0198 -0.0445,0.13103 0,0.13103 0.0445,0 0.0445,-0.13103 0,-0.13103 -0.0445,0 -0.02967,0.0999 0,0.13103 0.02967,0.0297 0.08702,0 0.131027,0 0.0445,0 0.09988,0.0297 0.131027,0 0.0618,-0.0618 -0.03956,-0.18344 0,-0.26156 0.299631,-0.59892 -0.05439,0.55536 0.261559,-0.39259 0.02967,-0.09 -0.03956,-0.31545 0,-0.39258 0.02967,-0.0554 0.103338,-0.0757 0.131027,-0.13103 0.03956,-0.0781 -0.03956,-0.18344 0,-0.26156 0.02967,-0.0554 0.09691,-0.0796 0.131027,-0.13103 0.05389,-0.0811 0.07664,-0.18047 0.131026,-0.26155 0.03461,-0.0514 0.103339,-0.0756 0.131027,-0.13103 0.01978,-0.0396 -0.02967,-0.0999 0,-0.13103 0.02967,-0.0297 0.09988,0.0297 0.131027,0 0.285787,-0.28579 0.261559,-0.27491 0.261559,-0.52346 0,-0.0445 -0.01978,-0.092 0,-0.13103 0.07021,-0.14042 0.191349,-0.25216 0.261563,-0.39259 0.0198,-0.0396 -0.0198,-0.092 0,-0.13102 0.43412,-0.43412 -0.06181,0.12361 0.13102,-0.26156 0.0297,-0.0554 0.0969,-0.0796 0.13103,-0.13103 0.67046,-1.00569 -0.550807,0.60861 0.39259,-0.52351 0.13943,-0.16762 0.28034,-0.33622 0.39258,-0.52347 0.0247,-0.0396 -0.0297,-0.0999 0,-0.13102 0.0297,-0.0297 0.10482,0.0346 0.13103,0 0.14042,-0.1874 0.3293,-0.6634 0.39259,-0.9161 0.01,-0.0445 -0.0297,-0.0999 0,-0.13103 0.19728,-0.19728 0.45686,-0.32584 0.65434,-0.52352 0.0297,-0.0297 -0.0297,-0.0999 0,-0.13102 0.0297,-0.0297 0.0999,0.0297 0.13103,0 0.0618,-0.0618 -0.0618,-0.20025 0,-0.26156 0.0297,-0.0297 0.0999,0.0297 0.13102,0 0.0687,-0.0692 0.0618,-0.19283 0.13103,-0.26156 0.0618,-0.0618 0.20025,0.0618 0.26156,0 0.0297,-0.0297 -0.0297,-0.0999 0,-0.13103 0.27095,-0.27095 -0.01,0.41385 0.26156,-0.13103 0.0198,-0.0395 -0.0297,-0.0999 0,-0.13102 0.0687,-0.0687 0.1691,-0.0999 0.26156,-0.13103 0.0396,-0.0148 0.0999,0.0297 0.13102,0 0.0297,-0.0297 -0.0297,-0.0999 0,-0.13103 0.0297,-0.0297 0.092,0.0198 0.13103,0 0.0554,-0.0297 0.0756,-0.10333 0.13103,-0.13102 0.0247,-0.0148 0.37429,-0.0198 0.39258,0 0.0687,0.0687 0.0396,0.22645 0.13103,0.26156 0.50364,0.19382 1.04471,0.27144 1.57049,0.39258 0.0445,0.01 0.13103,0.0445 0.13103,0 0,-0.0445 -0.17454,0 -0.13103,0 0.087,0 0.17454,0 0.26156,0 0.0445,0 0.0999,-0.0297 0.13103,0 0.0618,0.0618 -0.0297,0.17899 0,0.26156 0.0297,0.0925 0.0999,0.1691 0.13103,0.26156 0.0653,0.19629 -0.13103,0.13103 0,0.39259 0.0198,0.0395 0.0999,-0.0297 0.13102,0 0.0297,0.0297 -0.0297,0.0999 0,0.13102 0.0297,0.0297 0.0999,-0.0297 0.13103,0 0.0618,0.0618 -0.0396,0.18394 0,0.26156 0.0297,0.0554 0.1157,0.0712 0.13103,0.13103 0.0396,0.16416 -0.0396,0.35946 0,0.52347 0.0346,0.13399 0.0974,0.25859 0.13102,0.39258 0.0198,0.0846 -0.0396,0.18344 0,0.26156 0.0702,0.14042 0.19135,0.25217 0.26156,0.39259 0.0247,0.0519 -0.0247,0.36588 0,0.39258 0.0297,0.0297 0.0999,-0.0297 0.13103,0 0.0297,0.0297 -0.0198,0.092 0,0.13103 0.0297,0.0554 0.1157,0.0712 0.13103,0.13103 0.0148,0.0519 -0.0297,0.71595 0,0.78522 0.0583,0.14586 0.21211,0.24326 0.26156,0.39258 0.0395,0.12411 0,0.26156 0,0.39259 0,0.54562 0,0.2576 0,1.04698 0,0.13103 -0.0297,0.26551 0,0.39259 0.0148,0.0598 0.12212,0.0697 0.13102,0.13102 0.0445,0.30557 0,0.93904 0,1.30869 0,0.13103 -0.0395,0.26848 0,0.39258 0.0499,0.14933 0.19135,0.25217 0.26156,0.392591 0.0396,0.07812 -0.0297,0.178988 0,0.261559 0.0297,0.09246 0.11719,0.165144 0.13103,0.26156 0,1.057065 -0.0529,0.259087 0.13103,1.177857 0.0148,0.08554 -0.0396,0.183438 0,0.261559 0.0297,0.05538 0.10333,0.07565 0.13102,0.131027 0.0396,0.08307 -0.0445,0.569299 0,0.654343 0.0702,0.140916 0.19135,0.252165 0.26156,0.392586 0.0396,0.07812 -0.0396,0.183932 0,0.26156 0.0297,0.05538 0.10334,0.07565 0.13103,0.131027 0.0198,0.03955 0,0.08752 0,0.131026 0,0.0445 0,0.08702 0,0.131027 0,0.08801 -0.0198,0.837929 0,0.916105 0.0148,0.05983 0.10334,0.07565 0.13103,0.131027 0.0198,0.03956 0,0.08702 0,0.131027 0,0.131027 -0.0297,0.265515 0,0.392586 0.0148,0.05983 0.10333,0.07565 0.13102,0.131027 0.0396,0.07812 -0.0297,0.178988 0,0.261559 0.15822,0.474664 0.0623,0.09296 0.26156,0.392587 0.0539,0.08109 0.0766,0.180471 0.13103,0.261559 0.0445,0.0445 0.087,0.08752 0.13103,0.131027 0.0445,0 0.0999,-0.02967 0.13102,0 0.0297,0.02967 -0.0297,0.09988 0,0.131027 0.0297,0.02967 0.0999,-0.02967 0.13103,0 0.0297,0.02967 0,0.08752 0,0.131026 0.0445,0 0.0944,-0.02472 0.13103,0 0.60717,-0.111743 0.15031,0.281337 0.26156,0.392587 0.0297,0.02967 0.0999,-0.02967 0.13102,0 0.0297,0.02967 -0.0297,0.09988 0,0.131026 0.0297,0.02967 0.092,-0.01978 0.13103,0 0.0554,0.02967 0.0757,0.103339 0.13103,0.131027 0.0395,0.01978 0.0999,-0.02967 0.13102,0 0.0297,0.02967 -0.0297,0.09988 0,0.131027 0.13499,0.134983 0.39259,0.161188 0.39259,0.131027 0,-0.0445 -0.17454,0 -0.13103,0 0.26156,0 0.52352,0 0.78522,0 0.0588,0 0.35304,0.01978 0.39259,0 0.0554,-0.02967 0.0756,-0.103338 0.13103,-0.131027 0.0396,-0.01978 0.0999,0.02967 0.13102,0 0.0297,-0.02967 -0.0297,-0.09988 0,-0.131027 0.0618,-0.06181 0.20025,0.0618 0.26156,0 0.0297,-0.02967 -0.0198,-0.09197 0,-0.131027 0.0297,-0.05538 0.10334,-0.07565 0.13103,-0.131026 0.0198,-0.03956 -0.0297,-0.09988 0,-0.131027 0.0618,-0.06181 0.18344,0.03955 0.26156,0 0.54468,-0.272437 -0.13993,0.0099 0.13103,-0.26156 0.0297,-0.02967 0.11125,0.03956 0.13102,0 0.0396,-0.07812 -0.0395,-0.183932 0,-0.261559 0.0198,-0.03955 0.0999,0.02967 0.13103,0 0.0297,-0.02967 -0.0297,-0.09988 0,-0.131027 0.0297,-0.02967 0.11125,0.03956 0.13103,0 0.0395,-0.07812 -0.0524,-0.191843 0,-0.261559 0.0944,-0.125588 0.267,-0.167615 0.39258,-0.261559 0.25909,0.01483 0.0618,-0.192832 0.13103,-0.26156 0.0297,-0.02967 0.0999,0.02967 0.13103,0 0.0618,-0.0618 -0.0618,-0.200248 0,-0.261559 0.0297,-0.02967 0.092,0.01978 0.13102,0 0.11026,-0.05538 0.15921,-0.193326 0.26156,-0.261559 0.0811,-0.05389 0.18047,-0.07664 0.26156,-0.131027 0.2136,-0.142399 0.0539,-0.193821 0.39259,-0.261559 0.12855,-0.02472 0.26848,0.03955 0.39258,0 0.0826,-0.02967 -0.0618,-0.200249 0,-0.261559 0.0297,-0.02967 0.087,0 0.13103,0 0.0445,0 0.087,0 0.13103,0 0.087,0 0.17899,-0.02967 0.26156,0 0.0583,0.01978 0.0816,0.09394 0.13102,0.131026 0.12609,0.09444 0.267,0.167616 0.39259,0.26156 0.0494,0.03461 0.0757,0.103338 0.13103,0.131027 0.0395,0.01978 0.0999,-0.02967 0.13102,0 0.0297,0.02967 -0.0198,0.09197 0,0.131026 0.0297,0.05538 0.094,0.08158 0.13103,0.131027 0.0944,0.126083 0.15031,0.281337 0.26156,0.392586 0.0297,0.02967 0.1068,-0.03461 0.13103,0 0.25562,0.383687 0.0445,0.475653 0.13102,0.916096 0.01,0.06032 0.10334,0.07565 0.13103,0.131027 0.0198,0.03956 0,0.08752 0,0.131026 0.0875,0.0445 0.19283,0.06181 0.26156,0.131027 0.0297,0.02967 0,0.08702 0,0.131027 0,0.0445 0,0.08702 0,0.131027 0,0.133499 -0.0198,0.852515 0,0.916105 0.0198,0.05834 0.10334,0.07565 0.13103,0.131027 0.0198,0.03955 0,0.08752 0,0.131027 0,0.0445 0,0.08752 0,0.131027 0,0.305564 0,0.610733 0,0.9161 0,0.0445 0,0.08752 0,0.131027 0,0.0445 -0.0198,0.09197 0,0.131027 0.0297,0.05538 0.10334,0.07565 0.13102,0.131027 0.0198,0.03955 0,0.08702 0,0.131026 0,0.0445 0,0.08702 0,0.131027 0,0.218049 -0.0346,0.439064 0,0.654343 0.01,0.06082 0.10334,0.07565 0.13103,0.131027 0.0198,0.03956 0,0.08702 0,0.131027 0,0.174538 -0.0554,0.357975 0,0.523465 0.0499,0.149321 0.19135,0.252165 0.26156,0.392586 0.0198,0.03956 -0.0198,0.09197 0,0.131027 0.0297,0.05538 0.12213,0.06972 0.13103,0.131027 0.0346,0.259087 0,0.523464 0,0.785221 0,0.131027 -0.0297,0.265515 0,0.392587 0.0148,0.05983 0.1157,0.0712 0.13102,0.131026 0.0633,0.254143 -0.0633,0.531327 0,0.785272 0.0148,0.05983 0.10334,0.07565 0.13103,0.131026 0.0198,0.03956 -0.01,0.089 0,0.131027 0.11966,0.439558 0.29024,0.864975 0.39259,1.308736 0.0588,0.255132 -0.0633,0.531326 0,0.785222 0.0148,0.05983 0.10334,0.07565 0.13102,0.131027 0.0346,0.0712 -0.0346,0.487518 0,0.523514 0.0297,0.02967 0.0999,-0.02967 0.13103,0 0.0297,0.02967 -0.0297,0.09988 0,0.131027 0.0297,0.02967 0.092,-0.01978 0.13103,0 0.0554,0.02967 0.0756,0.103338 0.13102,0.131027 0.0396,0.01978 0.092,-0.01978 0.13103,0 0.0554,0.02967 0.0756,0.103338 0.13103,0.131026 0.0396,0.01978 0.0999,-0.02967 0.13102,0 0.0618,0.0618 -0.0727,0.213104 0,0.26156 0.11472,0.07664 0.27788,0.05439 0.39259,0.131027 0.0727,0.04944 -0.0618,0.200248 0,0.261559 0.0297,0.02967 0.087,0 0.13103,0 0.0445,0 0.087,0 0.13102,0 0.17454,0 0.34908,0 0.52352,0 0.087,0 0.34907,0 0.26156,0 -0.0875,0 -0.32337,0.0618 -0.26156,0 0.0974,-0.0974 0.26452,-0.07961 0.39258,-0.131027 0.0905,-0.03461 0.1691,-0.09988 0.26156,-0.131027 0.0396,-0.01483 0.092,0.01978 0.13103,0 0.14042,-0.07021 0.26156,-0.174538 0.39259,-0.261559 0.26156,-0.174538 0.51209,-0.36737 0.78522,-0.523465 0.0396,-0.01978 0.0999,0.02967 0.13103,0 0.0297,-0.02967 -0.0297,-0.09988 0,-0.131027 0.0297,-0.02967 0.092,0.01978 0.13102,0 0.0554,-0.02967 0.0756,-0.103338 0.13103,-0.131027 0.0396,-0.01978 0.0999,0.02967 0.13103,0 0.0297,-0.02967 0,-0.08752 0,-0.131026 0,-0.05884 0.0198,-0.352537 0,-0.392587 -0.16169,-0.323364 -0.13103,0.0445 -0.13103,-0.261559 0,-0.0445 -0.0148,-0.08949 0,-0.131027 0.0583,-0.174537 0.30754,-0.547692 0.39259,-0.654392 0.0771,-0.09642 0.19332,-0.15921 0.26155,-0.26156 0.0247,-0.03461 -0.0148,-0.08949 0,-0.131026 0.0297,-0.09246 0.0999,-0.169099 0.13103,-0.26156 0.0148,-0.03956 0,-0.08702 0,-0.131027 0,-0.07318 -0.0198,-0.594417 0,-0.654343 0.0198,-0.05834 0.1157,-0.0712 0.13103,-0.131027 0.0297,-0.127071 0,-0.261559 0,-0.392586 0,-0.0445 -0.0198,-0.09197 0,-0.131027 0.0297,-0.05538 0.10334,-0.07565 0.13103,-0.131027 0.0198,-0.03956 -0.0198,-0.09197 0,-0.131026 0.0297,-0.05538 0.10333,-0.07565 0.13102,-0.131027 0.0198,-0.03956 -0.01,-0.08851 0,-0.131027 0.0346,-0.133994 0.0974,-0.258593 0.13103,-0.392586 0.01,-0.04944 -0.0148,-0.376764 0,-0.392586 0.0687,-0.06922 0.19283,-0.06181 0.26156,-0.131027 0.0297,-0.02967 0,-0.08752 0,-0.131027 0,-0.131027 0,-0.261559 0,-0.392586 0,-0.0445 -0.0148,-0.08949 0,-0.131027 0.0297,-0.09246 0.0999,-0.169099 0.13103,-0.261559 0.0445,-0.138938 -0.0445,-0.384181 0,-0.523514 0.0297,-0.09246 0.10729,-0.167122 0.13102,-0.26156 0.001,-0.0044 -6.9e-4,-0.392091 0,-0.392586 0.0297,-0.02967 0.0999,0.02967 0.13103,0 0.004,-0.0042 0,-0.360942 0,-0.392586 0,-0.0445 0.0445,-0.131027 0,-0.131027 -0.0445,0 -0.0445,0.131027 0,0.131027 0.0445,0 -0.0198,-0.09197 0,-0.131027 0.0297,-0.05538 0.1157,-0.0712 0.13103,-0.131027 0.0297,-0.127071 -0.0198,-0.263537 0,-0.392586 0.0247,-0.135971 0.0974,-0.258593 0.13102,-0.392586 0.0445,-0.170088 -0.0396,-0.480597 0,-0.654343 0.12114,-0.525789 0.27145,-1.044705 0.39259,-1.570444 0.01,-0.0445 0,-0.08752 0,-0.131026 0.0445,-0.08752 0.0999,-0.169099 0.13103,-0.26156 0.0148,-0.03955 -0.0198,-0.09197 0,-0.131027 0.0297,-0.05538 0.10333,-0.07565 0.13102,-0.131026 0.0396,-0.07812 -0.0396,-0.183438 0,-0.26156 0.0297,-0.05538 0.10334,-0.07565 0.13103,-0.131027 0.0198,-0.03955 -0.0198,-0.09197 0,-0.131026 0.0297,-0.05538 0.10334,-0.07565 0.13103,-0.131027 0.0198,-0.03956 -0.0297,-0.09988 0,-0.131027 0.0297,-0.02967 0.0999,0.02967 0.13102,0 0.0297,-0.02967 -0.0297,-0.09988 0,-0.131027 0.0618,-0.0618 0.20025,0.06181 0.26156,0 0.0297,-0.02967 -0.0297,-0.09988 0,-0.131027 0.0297,-0.02967 0.092,0.01978 0.13103,0 0.0554,-0.02967 0.0756,-0.103338 0.13103,-0.131027 0.0396,-0.01978 0.0999,0.02967 0.13102,0 0.0297,-0.02967 -0.0198,-0.09197 0,-0.131027 0.0297,-0.05538 0.11125,-0.07219 0.13103,-0.131027 0,-0.595801 -0.0618,-0.0099 0.13103,-0.392586 0.0198,-0.03956 -0.0297,-0.09988 0,-0.131026 0.0297,-0.02967 0.0999,0.02967 0.13102,0 0.51076,-0.510758 -0.0297,-0.07021 0.13103,-0.392587 0.0297,-0.05538 0.10334,-0.07565 0.13103,-0.131026 0.0198,-0.03956 -0.0198,-0.09197 0,-0.131027 0.0702,-0.140916 0.19135,-0.252165 0.26156,-0.392586 0.0198,-0.03956 -0.01,-0.089 0,-0.131027 0.0756,-0.265515 0.15327,-0.531623 0.26156,-0.785222 0.0247,-0.05686 0.10333,-0.07565 0.13102,-0.131027 0.0198,-0.03955 -0.01,-0.089 0,-0.131027 0.0756,-0.265515 0.15328,-0.531623 0.26156,-0.785221 0.0247,-0.05686 0.1068,-0.07417 0.13103,-0.131027 0.10878,-0.253649 0.13844,-0.538447 0.26156,-0.785227 0.0198,-0.0396 0.0999,0.0297 0.13103,0 0.11124,-0.11124 0.19134,-0.25216 0.26155,-0.39258 0.39902,-0.0925 0.0504,-0.36243 0.13103,-0.52347 0.0297,-0.0554 0.087,-0.0875 0.13103,-0.13102 0.17454,-0.17454 0.36935,-0.33078 0.52346,-0.52352 0.0297,-0.0346 -0.0247,-0.0939 0,-0.13102 -0.24821,-0.76406 0.54325,-0.68401 0.78522,-1.04698 0.22844,-0.34265 0.42621,-0.70458 0.6544,-1.04698 0.0346,-0.0514 0.10334,-0.0757 0.13102,-0.13103 0.0198,-0.0395 -0.0198,-0.092 0,-0.13102 0.0297,-0.0554 0.0757,-0.10334 0.13103,-0.13103 0.0396,-0.0198 0.13103,0.0445 0.13103,0 0,-0.0445 -0.16168,-0.0297 -0.13103,0 0.40149,0.40148 0.10878,-0.0766 0.52347,0.13103 0.0395,0.0198 -0.0198,0.092 0,0.13102 0.0297,0.0554 0.087,0.087 0.13102,0.13103 0.0984,0.0984 0.26156,0.28925 0.26156,0.13103 0,-0.0445 -0.17454,0 -0.13103,0 0.087,0 0.18938,-0.0495 0.26156,0 0.0811,0.0539 0.0618,0.19283 0.13103,0.26155 0.0297,0.0297 0.0999,-0.0297 0.13103,0 0.0297,0.0297 -0.0198,0.092 0,0.13103 0.0297,0.0554 0.087,0.0875 0.13102,0.13103 0.0445,0.0445 0.0756,0.10334 0.13103,0.13103 0.0396,0.0198 0.0999,-0.0297 0.13103,0 0.0297,0.0297 -0.0297,0.0999 0,0.13102 0.0297,0.0297 0.0999,-0.0297 0.13103,0 0.0297,0.0297 -0.0198,0.092 0,0.13103 0.0554,0.11026 0.19332,0.15921 0.26155,0.26156 0.0539,0.0811 0.0766,0.18047 0.13103,0.26156 0.0346,0.0514 0.0939,0.0816 0.13103,0.13102 0.22497,0.30013 0.42917,0.61588 0.65439,0.9161 0.0346,0.0494 0.087,0.0875 0.13103,0.13103 0.0445,0.0445 0.0756,0.10334 0.13102,0.13103 0.0396,0.0198 0.0999,-0.0297 0.13103,0 0.27096,0.27095 -0.41385,-0.01 0.13103,0.26156 0.17454,0.087 0.13103,-0.13103 0.13103,0.13102 0,0.37825 0.14932,-0.0752 0.26155,0.26156 0.0297,0.0826 -0.0395,0.18394 0,0.26156 0.0198,0.0396 0.0999,-0.0297 0.13103,0 0.0297,0.0297 -0.0198,0.092 0,0.13103 0.0702,0.140421 0.15031,0.281337 0.26156,0.392586 0.0297,0.02967 0.0999,-0.02967 0.13103,0 0.0687,0.06922 0.0618,0.192832 0.13102,0.26156 0.0297,0.02967 0.0999,-0.02967 0.13103,0 0.0297,0.02967 -0.0198,0.09197 0,0.131026 0.0702,0.140422 0.19135,0.252165 0.26156,0.392587 0.0198,0.03956 -0.0198,0.09197 0,0.131026 0.0974,0.195305 0.36935,0.238321 0.52347,0.392587 0.0297,0.02967 -0.0297,0.09988 0,0.131026 0.19777,0.197282 0.45686,0.325837 0.654388,0.523514 0.0297,0.02967 -0.0297,0.09988 0,0.131027 0.0297,0.02967 0.0999,-0.02967 0.13102,0 0.0297,0.02967 -0.0346,0.104822 0,0.131027 0.15625,0.117183 0.356,0.161188 0.52347,0.261559 0.0529,0.02967 0.0756,0.103339 0.13103,0.131027 0.0781,0.03956 0.20024,-0.0618 0.26156,0 0.0297,0.02967 -0.0297,0.09988 0,0.131027 0.0297,0.02967 0.0885,-0.0099 0.13102,0 0.134,0.03461 0.27788,0.05439 0.39259,0.131027 0.0346,0.02472 -0.0297,0.09988 0,0.131027 0.0297,0.02967 0.092,-0.01978 0.13103,0 0.0554,0.02967 0.0756,0.103338 0.13102,0.131027 0.0396,0.01978 0.087,0 0.13103,0 0.0445,0 0.087,0 0.13103,0 0.13102,0 0.26848,0.03955 0.39258,0 0.0396,-0.01483 -0.0297,-0.09988 0,-0.131027 0.0297,-0.02967 0.088,-0.0099 0.13103,0 0.17651,0.03461 0.3471,0.09543 0.52346,0.131027 0.0445,0.0099 0.37924,-0.01483 0.39259,0 0.0297,0.02967 -0.0148,0.08949 0,0.131027 0.0297,0.09246 0.0618,0.192832 0.13103,0.261559 0.27095,0.270954 -0.01,-0.413847 0.26156,0.131027 0.0697,0.139432 -0.0697,0.122621 0,0.261559 0.0554,0.11026 0.20667,0.151299 0.26155,0.261559 0.0198,0.03956 0,0.08752 0,0.131027 0.17454,0.131027 0.36935,0.238321 0.52352,0.392586 0.0618,0.06181 -0.0396,0.183438 0,0.26156 0.0702,0.140915 0.19975,0.248209 0.26156,0.392586 0.0707,0.165143 0.0395,0.369347 0.13103,0.523514 0.0499,0.08356 0.18047,0.07664 0.26155,0.131027 0.32535,0.217059 0.0148,0.02967 0.13103,0.261559 0.0297,0.05538 0.10334,0.07565 0.13103,0.131027 0.0198,0.03956 -0.0198,0.09296 0,0.131027 0.39456,0.690585 0.37825,0.640202 0.78522,1.046978 0.0445,0.0445 0.087,0.08752 0.13103,0.131027 0,0.0445 -0.0297,0.09988 0,0.131027 0.0297,0.02967 0.13102,0.0445 0.13102,0 0,-0.0445 -0.13102,0.0445 -0.13102,0 0,-0.06181 0.10333,-0.07565 0.13102,-0.131027 0.0198,-0.03955 -0.0198,-0.09197 0,-0.131027 0.0297,-0.05538 0.1157,-0.0712 0.13103,-0.131026 0,-1.221467 -0.13103,-0.131027 0.13103,-0.392587 0.0346,-0.03461 -0.0346,-0.452413 0,-0.523514 0.0297,-0.05538 0.10334,-0.07565 0.13102,-0.131026 0.0198,-0.03956 -0.0297,-0.09988 0,-0.131027 0.0297,-0.02967 0.0999,0.02967 0.13103,0 0.0148,-0.01483 -0.01,-0.34512 0,-0.392586 0.0346,-0.133994 0.0974,-0.258593 0.13103,-0.392587 0.01,-0.0445 -0.0148,-0.08949 0,-0.131026 0.0297,-0.09246 0.12262,-0.164649 0.13102,-0.26156 0.0346,-0.434613 0,-0.872441 0,-1.308686 0,-0.0445 0,-0.08752 0,-0.131027 0,-0.0445 -0.0198,-0.09197 0,-0.131027 0.0297,-0.05538 0.10334,-0.07565 0.13103,-0.131027 0.0198,-0.03956 0,-0.08702 0,-0.131027 0,-0.131026 -0.0395,-0.268481 0,-0.392586 0.0499,-0.149321 0.21212,-0.243265 0.26156,-0.392586 0,-0.928263 -0.0925,-0.07664 0.13103,-0.523465 0.0198,-0.03956 0,-0.08752 0,-0.131026 0,-0.218049 -0.0445,-0.440547 0,-0.654393 0.01,-0.0445 0.0999,0.02967 0.13102,0 0.0618,-0.06181 -0.0395,-0.183438 0,-0.261559 0.0297,-0.05538 0.10334,-0.07565 0.13103,-0.131027 0.0697,-0.139432 -0.0697,-0.122622 0,-0.261559 0.0297,-0.05538 0.10334,-0.07565 0.13103,-0.131027 0.0198,-0.03956 -0.0148,-0.08949 0,-0.131027 0.0297,-0.09246 0.0999,-0.169099 0.13103,-0.261559 0.0148,-0.03956 -0.0198,-0.09197 0,-0.131027 0.0297,-0.05538 0.10333,-0.07565 0.13102,-0.131028 0.0198,-0.0396 -0.0198,-0.092 0,-0.13103 0.0297,-0.0554 0.1157,-0.0712 0.13103,-0.13102 0,-1.22146 -0.13103,-0.13103 0.13103,-0.39259 0.0148,-0.0148 -0.0148,-0.20816 0,-0.26156 0.0346,-0.13399 0.0974,-0.25859 0.13102,-0.39258 0.01,-0.0445 -0.0297,-0.0999 0,-0.13103 0.0687,-0.0687 0.19283,-0.0618 0.26156,-0.13103 0.0247,-0.0247 -0.0247,-0.34067 0,-0.39258 0.0297,-0.0554 0.10334,-0.0756 0.13103,-0.13103 0.0395,-0.0781 -0.0618,-0.20025 0,-0.26156 0.27095,-0.27095 -0.01,0.41385 0.26156,-0.13103 0.0395,-0.0781 -0.0396,-0.18343 0,-0.26156 0.0297,-0.0554 0.0939,-0.0816 0.13102,-0.13102 0.0944,-0.12559 0.19135,-0.25217 0.26156,-0.39259 0.0198,-0.0396 -0.0198,-0.092 0,-0.13103 0.0297,-0.0554 0.1157,-0.0712 0.13103,-0.13102 0.0297,-0.12707 -0.0395,-0.26848 0,-0.39259 0.0148,-0.0396 0.0999,0.0297 0.13103,0 0.0297,-0.0297 -0.0198,-0.092 0,-0.13103 0.0702,-0.14091 0.19135,-0.25216 0.26156,-0.39258 0.0198,-0.0396 -0.0198,-0.092 0,-0.13103 0.0702,-0.14091 0.18096,-0.2576 0.26156,-0.39259 0.0504,-0.0836 0.0766,-0.18047 0.13102,-0.26155 0.0346,-0.0514 0.10334,-0.0756 0.13103,-0.13103 0.0198,-0.0396 -0.0297,-0.0999 0,-0.13103 0.0687,-0.0692 0.1691,-0.0999 0.26156,-0.13103 0.0395,-0.0148 0.0999,0.0297 0.13103,0 0.0618,-0.0618 -0.0495,-0.18937 0,-0.26155 0.0682,-0.10285 0.19332,-0.15921 0.26156,-0.26156 0.0247,-0.0346 -0.0297,-0.0999 0,-0.13103 0.27095,-0.27095 -0.01,0.41385 0.26155,-0.13103 0.0396,-0.0781 -0.0618,-0.20025 0,-0.26156 0.0297,-0.0297 0.0999,0.0297 0.13103,0 0.0297,-0.0297 -0.0297,-0.0999 0,-0.13102 0.0618,-0.0618 0.20025,0.0618 0.26156,0 0.0297,-0.0297 -0.0297,-0.0999 0,-0.13103 0.0687,-0.0687 0.19283,-0.0618 0.26156,-0.13103 0.0297,-0.0297 -0.0297,-0.0969 0,-0.13102 0.15427,-0.19284 0.36935,-0.33079 0.52351,-0.52351 0.0297,-0.0346 -0.0346,-0.10482 0,-0.13103 0.15625,-0.11718 0.36737,-0.14487 0.52347,-0.26156 0.0346,-0.0247 -0.0297,-0.0999 0,-0.13103 0.0297,-0.0297 0.0999,0.0297 0.13103,0 0.0297,-0.0297 -0.0297,-0.0999 0,-0.13102 0.0297,-0.0297 0.0999,0.0297 0.13102,0 0.0297,-0.0297 -0.0297,-0.0999 0,-0.13103 0.0148,-0.0148 0.37973,-0.0148 0.39259,0 0.0297,0.0297 -0.0297,0.0999 0,0.13103 0.0297,0.0297 0.0999,-0.0297 0.13103,0 0.0618,0.0618 -0.0618,0.20025 0,0.26156 0.0618,0.0618 0.20024,-0.0618 0.26156,0 0.0297,0.0297 -0.0297,0.0999 0,0.13102 0.0297,0.0297 0.0999,-0.0297 0.13102,0 0.27096,0.27096 -0.41385,-0.01 0.13103,0.26156 0.0396,0.0198 0.0999,-0.0297 0.13103,0 0.0687,0.0687 0.0999,0.1691 0.13102,0.26156 0.0148,0.0396 -0.0445,0.13103 0,0.13103 0.0445,0 0.0445,-0.13103 0,-0.13103 -0.0445,0 0,0.087 0,0.13103 0,0.0445 -0.0297,0.0999 0,0.13103 0.0687,0.0687 0.19283,0.0618 0.26156,0.13102 0.0297,0.0297 -0.0148,0.0905 0,0.13103 0.0727,0.18096 0.14487,0.36737 0.26156,0.52351 0.0247,0.0346 0.0999,-0.0297 0.13103,0 0.51076,0.51076 -0.0297,0.0702 0.13102,0.39258 0.0297,0.0554 0.10334,0.0756 0.13103,0.13103 0.0198,0.0396 -0.0198,0.092 0,0.13103 0.0297,0.0554 0.10334,0.0757 0.13103,0.13102 0.0346,0.0717 -0.0247,0.30359 0,0.39259 0.0346,0.13399 0.0974,0.25859 0.13103,0.39259 0.01,0.0445 -0.0297,0.0999 0,0.13102 0.0297,0.0297 0.0999,-0.0297 0.13102,0 0.0297,0.0297 -0.01,0.0885 0,0.13103 0.0346,0.13399 0.0544,0.27788 0.13103,0.39259 0.0247,0.0346 0.0999,-0.0297 0.13103,0 0.0618,0.0618 -0.0396,0.18343 0,0.26156 0.0554,0.11026 0.20667,0.1513 0.26156,0.26156 0.0198,0.0395 -0.0297,0.0999 0,0.13102 0.0687,0.0692 0.21162,0.0495 0.26155,0.13103 0.0925,0.15426 0.0643,0.35649 0.13103,0.52347 0.0445,0.11471 0.20668,0.1513 0.26156,0.26156 0.0198,0.0396 -0.0297,0.0999 0,0.13102 0.0687,0.0692 0.19283,0.0618 0.26156,0.13103 0.0297,0.0297 0.0297,0.0999 0,0.13103 -0.0297,0.0297 -0.0999,-0.0297 -0.13103,0 -0.0297,0.0297 0.0148,0.0895 0,0.13103 -0.0297,0.0925 -0.0618,0.19283 -0.13102,0.26155 -0.0297,0.0297 -0.0999,-0.0297 -0.13103,0 -0.0297,0.0297 0.0198,0.092 0,0.13103 -0.0297,0.0554 -0.10334,0.0756 -0.13103,0.13103 -0.0198,0.0396 -0.0445,0.13103 0,0.13103 0.0539,0 -0.13943,-0.68065 0.13103,0.13102 0.0148,0.0396 -0.0297,0.0999 0,0.13103 0.0687,0.0687 0.21162,0.0494 0.26156,0.13103 0.0925,0.15426 0.0643,0.35649 0.13103,0.52346 0.0445,0.11471 0.20667,0.15129 0.26155,0.26155 0.0198,0.0396 -0.0297,0.0999 0,0.13103 0.0692,0.0687 0.19284,0.0618 0.26156,0.13103 0.0297,0.02967 -0.0198,0.09197 0,0.131026 0.0297,0.05538 0.10334,0.07565 0.13103,0.131026 0.19234,0.38517 -0.30309,-0.172065 0.13103,0.26156 0.0984,0.09839 0.26156,0.289742 0.26156,0.131026 0,-0.0445 -0.17454,0 -0.13103,0 0.21805,0 0.4361,0 0.65434,0 0.0445,0 0.0875,0 0.13103,0 0.0445,0 0.0944,-0.02472 0.13103,0 0.10284,0.06823 0.15921,0.193327 0.26156,0.26156 0.0346,0.02472 0.0999,-0.02967 0.13102,0 0.0297,0.02967 -0.0297,0.09988 0,0.131027 0.0297,0.02967 0.13103,0.0445 0.13103,0 0,-0.0445 -0.13103,-0.0445 -0.13103,0 0,0.0618 0.0989,0.07812 0.13103,0.131026 0.10037,0.167122 0.16119,0.355998 0.26156,0.523465 0.0633,0.105811 0.20668,0.151299 0.26156,0.261559 0.0396,0.07812 -0.0618,0.200249 0,0.26156 0.0618,0.0618 0.20025,-0.06181 0.26156,0 0,0.349075 -0.0445,-0.0445 0.13102,0.131027 0.51076,0.510757 -0.0297,0.07021 0.13103,0.392586 0.27244,0.544676 -0.01,-0.139927 0.26156,0.131027 0.0297,0.02967 -0.0297,0.09988 0,0.131026 0.0297,0.02967 0.0999,-0.02967 0.13103,0 0.0297,0.02967 -0.0148,0.08949 0,0.131027 0.0297,0.09246 0.0618,0.192832 0.13102,0.26156 0.0297,0.02967 0.092,-0.01978 0.13103,0 0.14042,0.07021 0.28134,0.15031 0.39259,0.261559 0.0297,0.02967 -0.0297,0.09988 0,0.131027 0.0687,0.06873 0.19283,0.06181 0.26156,0.131027 0.0297,0.02967 -0.0297,0.09988 0,0.131026 0.0297,0.02967 0.0999,-0.02967 0.13102,0 0.0297,0.02967 -0.0297,0.09988 0,0.131027 0.0618,0.06181 0.17899,-0.02967 0.26156,0 0.0925,0.02967 0.1691,0.09988 0.26156,0.131027 0.0396,0.01483 0.087,0 0.13103,0 0.13103,0 0.26551,0.02967 0.39259,0 0.0598,-0.01483 0.0756,-0.103338 0.13102,-0.131027 0.0781,-0.03955 0.20025,0.06181 0.26156,0 0.0297,-0.02967 -0.0297,-0.09988 0,-0.131027 0.0297,-0.02967 0.0999,0.02967 0.13103,0 0.0297,-0.02967 -0.0297,-0.09988 0,-0.131026 0.0445,-0.0445 0.56401,0.0445 0.65439,0 0.0554,-0.02967 0.0756,-0.103339 0.13103,-0.131027 0.0395,-0.01978 0.0875,0 0.13102,0 0.0445,0 0.0999,-0.02967 0.13103,0 0.0297,0.02967 -0.0297,0.09988 0,0.131027 0.0297,0.02967 0.0999,-0.02967 0.13103,0 0.27095,0.270953 -0.41385,-0.0099 0.13103,0.261559 0.32237,0.161188 -0.11818,-0.379731 0.39258,0.131027 0.0297,0.02967 -0.0297,0.09988 0,0.131027 0.0148,0.01483 0.37973,0.01483 0.39259,0 0.0297,-0.02967 -0.0297,-0.09988 0,-0.131027 0.0297,-0.02967 0.0999,0.02967 0.13102,0 0.0297,-0.02967 -0.0198,-0.09197 0,-0.131027 0.0297,-0.05538 0.10334,-0.07565 0.13103,-0.131027 0.0396,-0.07812 -0.0395,-0.183932 0,-0.261559 0.0297,-0.05538 0.10334,-0.07565 0.13103,-0.131027 0.0395,-0.07812 -0.0524,-0.191843 0,-0.261559 0.11125,-0.147838 0.28183,-0.244749 0.39258,-0.392587 0.0247,-0.03461 -0.0198,-0.09197 0,-0.131026 0.0297,-0.05538 0.10334,-0.07565 0.13103,-0.131027 0.0198,-0.03956 -0.0297,-0.09988 0,-0.131027 0.0297,-0.02967 0.0999,0.02967 0.13103,0 0.0618,-0.06181 -0.0618,-0.200249 0,-0.261559 0.0297,-0.02967 0.0999,0.02967 0.13102,0 0.0618,-0.06181 -0.0395,-0.183438 0,-0.26156 0.0297,-0.05538 0.0969,-0.07961 0.13103,-0.131027 0.0539,-0.08109 0.0618,-0.192832 0.13103,-0.261559 0.34907,0 -0.0445,0.0445 0.13103,-0.131027 0.0618,-0.0618 0.20024,0.06181 0.26155,0 0.0687,-0.06922 0.0618,-0.192832 0.13103,-0.261559 0.0618,-0.06181 0.20025,0.0618 0.26156,0 0.0618,-0.06181 -0.0618,-0.200249 0,-0.261559 0.0297,-0.02967 0.0999,0.02967 0.13103,0 0.0297,-0.02967 0,-0.08752 0,-0.131027 0,-0.174538 0,-0.349075 0,-0.523514 0,-0.0445 0,-0.08702 0,-0.131027 0,-0.0445 0.0445,-0.131027 0,-0.131027 -0.0445,0 -0.0445,0.131027 0,0.131027 0.0618,0 0.10334,-0.07565 0.13102,-0.131027 0.0198,-0.03955 -0.0198,-0.09197 0,-0.131026 0.0297,-0.0554 0.0969,-0.0796 0.13103,-0.13103 0.0539,-0.0811 0.0766,-0.18047 0.13103,-0.26156 0.0346,-0.0514 0.0756,-0.10334 0.13103,-0.13102 0.0396,-0.0198 0.11124,0.0396 0.13102,0 0.0396,-0.0781 -0.0395,-0.18344 0,-0.26156 0.0198,-0.0396 0.0999,0.0297 0.13103,0 0.0297,-0.0297 -0.0297,-0.0999 0,-0.13103 0.27095,-0.27095 -0.01,0.41385 0.26156,-0.13103 0.0198,-0.0395 -0.0297,-0.0999 0,-0.13102 0.0297,-0.0297 0.1068,0.0346 0.13102,0 0.0766,-0.11471 0.0346,-0.29518 0.13103,-0.39259 0.13795,-0.13795 0.34908,-0.17454 0.52347,-0.26156 0.0875,-0.0445 0.19283,-0.0618 0.26156,-0.13103 0.0297,-0.0297 -0.0297,-0.0999 0,-0.13102 0.0297,-0.0297 0.0999,0.0297 0.13102,0 0.0297,-0.0297 -0.0198,-0.092 0,-0.13103 0.16168,-0.32336 0.13103,0.0445 0.13103,-0.26156 0,-0.0445 0.0445,-0.13103 0,-0.13103 -0.0445,0 -0.0297,0.16169 0,0.13103 0.0687,-0.0687 0.0618,-0.19283 0.13103,-0.26156 0.0297,-0.0297 0.0999,0.0297 0.13102,0 0.0297,-0.0297 -0.0198,-0.092 0,-0.13103 0.0297,-0.0554 0.0939,-0.0816 0.13103,-0.13102 0.0944,-0.12559 0.16762,-0.267 0.26156,-0.39259 0.0396,-0.0494 0.10334,-0.0756 0.13103,-0.13102 0.0395,-0.0781 -0.0544,-0.19383 0,-0.26156 0.15426,-0.19284 0.34907,-0.34908 0.52351,-0.52347 0.0445,-0.0445 0.0756,-0.10334 0.13103,-0.13103 0.0395,-0.0198 0.092,0.0198 0.13102,0 0.54463,-0.27243 -0.13992,0.01 0.13103,-0.26155 1e-4,-1e-4 0.39209,1.9e-4 0.39259,0 0.0583,-0.0198 0.0756,-0.10334 0.13102,-0.13103 0.0396,-0.0198 0.0875,0 0.13103,0 0.0445,-0.0445 0.0756,-0.10334 0.13103,-0.13103 0.12361,-0.0618 0.26452,-0.0796 0.39258,-0.13103 0.0905,-0.0346 0.1691,-0.0999 0.26156,-0.13102 0.0396,-0.0148 0.0999,0.0297 0.13103,0 0.0297,-0.0297 -0.0297,-0.0999 0,-0.13103 0.0297,-0.0297 0.0895,0.0148 0.13103,0 0.0925,-0.0297 0.1691,-0.0999 0.26156,-0.13103 0.0826,-0.0297 0.17453,0 0.26156,0 0.17453,0 0.34907,0 0.52346,0 0.0445,0 0.0905,-0.0148 0.13103,0 0.18096,0.0727 0.34215,0.18937 0.52351,0.26156 0.10631,0.0445 0.41731,-0.0445 0.52347,0 0.20618,0.0826 0.41879,0.36638 0.52351,0.26156 0.0297,-0.0297 -0.0198,-0.092 0,-0.13102 0.34314,-0.34315 0.002,0.0593 0.13103,-0.26156 0.0727,-0.18097 0.20025,-0.3382 0.26156,-0.52352 0.0297,-0.0826 -0.0396,-0.18344 0,-0.26156 0.0198,-0.0396 0.11718,0.0396 0.13102,0 0.0396,-0.1241 0,-0.26156 0,-0.39258 0,-0.0445 -0.0148,-0.0905 0,-0.13103 0.0727,-0.18097 0.18937,-0.34215 0.26156,-0.52346 0.0148,-0.0396 -0.0297,-0.0999 0,-0.13103 0.0297,-0.0297 0.0999,0.0297 0.13103,0 0.0297,-0.0297 -0.0297,-0.0999 0,-0.13103 0.0297,-0.0297 0.0999,0.0297 0.13103,0 0.0297,-0.0297 -0.0297,-0.0999 0,-0.13103 0.0618,-0.0618 0.20024,0.0618 0.26155,0 0.0247,-0.0247 -0.0247,-0.34067 0,-0.39258 0.27244,-0.54463 -0.01,0.13993 0.26156,-0.13103 0.0297,-0.0297 -0.0297,-0.0999 0,-0.13103 0.0618,-0.0618 0.20025,0.0618 0.26156,0 0.0297,-0.0297 -0.0297,-0.0999 0,-0.13102 0.0148,-0.0148 0.37973,-0.0148 0.39259,0 0.0297,0.0297 -0.0198,0.092 0,0.13102 0.0297,0.0554 0.10334,0.0756 0.13103,0.13103 0.0198,0.0396 -0.0297,0.0999 0,0.13103 0.0297,0.0297 0.0999,-0.0297 0.13102,0 0.27096,0.27095 -0.41384,-0.01 0.13103,0.26156 0.0781,0.0396 0.20025,-0.0618 0.26156,0 0.0297,0.0297 -0.0297,0.0999 0,0.13102 0.0618,0.0618 0.18344,-0.0396 0.26156,0 0.0554,0.0297 0.0816,0.094 0.13103,0.13103 0.12608,0.0944 0.28133,0.15031 0.39258,0.26156 0.0297,0.0297 -0.0297,0.0999 0,0.13103 0.0297,0.0297 0.092,-0.0198 0.13103,0 0.0554,0.0297 0.0756,0.10334 0.13103,0.13102 0.0346,0.0148 0.45488,0 0.52346,0 0.0445,0 0.13103,0.0445 0.13103,0 0,-0.0445 -0.17454,0 -0.13103,0 0.13103,0 0.26156,0 0.39259,0 0.0297,0 0.38863,-0.004 0.39258,0 0.0297,0.0297 -0.0346,0.1068 0,0.13103 0.11471,0.0766 0.25859,0.0974 0.39259,0.13103 0.0445,0.01 0.0999,-0.0297 0.13103,0 0.0297,0.0297 -0.0297,0.0999 0,0.13103 0.0687,0.0687 0.19283,0.0618 0.26155,0.13102 0.0297,0.0297 -0.0297,0.0999 0,0.13103 0.0297,0.0297 0.0999,-0.0297 0.13103,0 0.0297,0.0297 -0.0198,0.092 0,0.13103 0.0297,0.0554 0.10334,0.0756 0.13103,0.13102 0.0396,0.0781 -0.0618,0.20025 0,0.26156 0.0297,0.0297 0.0999,-0.0297 0.13103,0 0.0297,0.0297 -0.0148,0.0895 0,0.13103 0.31594,0.94799 -0.0396,-0.20618 0.26155,0.39258 0.0198,0.0396 -0.0445,0.13103 0,0.13103 0.0445,0 -0.0445,-0.13103 0,-0.13103 0.27244,0 0.0529,0.18344 0.13103,0.26156 0.0687,0.0692 0.19283,0.0618 0.26156,0.13103 0.0297,0.0297 -0.0198,0.092 0,0.13103 0.0554,0.11026 0.20668,0.1513 0.26156,0.26156 0.0198,0.0396 0,0.0875 0,0.13102 0.087,0.087 0.19333,0.15921 0.26156,0.26156 0.0247,0.0346 -0.0297,0.0999 0,0.13103 0.0297,0.0297 0.0999,-0.0297 0.13103,0 0.0297,0.0297 -0.0198,0.092 0,0.13103 0.0297,0.0554 0.10333,0.0757 0.13102,0.13102 0.0198,0.0396 -0.0297,0.0999 0,0.13103 0.0297,0.0297 0.0999,-0.0297 0.13103,0 0.0297,0.0297 -0.0297,0.0999 0,0.13103 0.27095,0.27095 -0.01,-0.41385 0.26156,0.13102 0.0198,0.0396 0,0.087 0,0.13103 0.087,0.17454 0.16119,0.356 0.26156,0.52347 0.0297,0.0529 0.10334,0.0756 0.13103,0.13102 0.0395,0.0781 -0.0618,0.20025 0,0.26156 0.0618,0.0618 0.20024,-0.0618 0.26155,0 0.0687,0.0687 0.0766,0.18047 0.13103,0.26156 0.0346,0.0514 0.094,0.0816 0.13103,0.13103 0.0944,0.12608 0.15031,0.28134 0.26156,0.39258 0.0297,0.0297 0.0885,-0.01 0.13102,0 0.134,0.0346 0.27788,0.0544 0.39259,0.13103 0.0346,0.0247 -0.0395,0.11125 0,0.13103 0.24673,0.12311 0.55125,0.1157 0.78522,0.26156 0.78334,-0.11274 0.12361,0.38566 0.26156,0.52347 0.11125,0.11125 0.27343,0.15921 0.39259,0.26156 0.18739,0.160689 0.34907,0.349072 0.52351,0.523456 0.0445,0.0445 0.0756,0.103338 0.13103,0.131027 0.0395,0.01978 0.092,-0.01978 0.13103,0 0.11026,0.05538 0.15129,0.206676 0.26155,0.261559 0.0396,0.01978 0.0999,-0.02967 0.13103,0 0.0297,0.02967 -0.0346,0.106799 0,0.131027 0.0925,0.399014 0.36243,0.05043 0.52347,0.131027 0.59896,0.299631 -0.55536,-0.05439 0.39258,0.261559 0.0396,0.01483 0.11125,0.03955 0.13103,0 0.20173,-0.403464 -0.0811,-0.143388 -0.13103,-0.392586 -0.0346,-0.171077 0.0297,-0.351548 0,-0.523514 -0.0148,-0.09642 -0.087,-0.174538 -0.13102,-0.261559 -0.0875,-0.174536 -0.18938,-0.342156 -0.26156,-0.523506 -0.0148,-0.0396 0.0297,-0.0999 0,-0.13103 -0.0297,-0.0297 -0.13103,-0.0445 -0.13103,0 0,0.0445 0.0999,-0.0297 0.13103,0 0.0297,0.0297 -0.0198,0.092 0,0.13103 0.0297,0.0554 0.10333,0.0756 0.13102,0.13102 0.0198,0.0396 -0.0198,0.092 0,0.13103 0.0297,0.0554 0.10334,0.0756 0.13103,0.13103 0.0524,0.104818 -0.0524,0.287762 0,0.392583 0.0297,0.05538 0.1157,0.0712 0.13103,0.131027 0.0297,0.127071 0,0.261559 0,0.392586 0,0.0445 -0.0297,0.09988 0,0.131027 0.0297,0.02967 0.11718,-0.03956 0.13102,0 0.0396,0.124105 0,0.261559 0,0.392586 0,0.08752 0,0.174538 0,0.261559 0,0.0445 -0.0148,0.08949 0,0.131027 0.31595,0.947942 -0.0396,-0.206182 0.26156,0.392586 0.0198,0.03956 -0.0198,0.09197 0,0.131027 0.0554,0.110261 0.20668,0.151299 0.26156,0.261559 0.0198,0.03956 -0.0445,0.131027 0,0.131027 0.0618,0 0.0722,-0.111249 0.13103,-0.131027 0.0826,-0.02967 0.17454,0 0.26156,0 0.17454,0 0.35155,0.02967 0.52351,0 0.0964,-0.01483 0.1691,-0.09988 0.26156,-0.131026 0.0396,-0.01483 0.092,0.01978 0.13103,0 0.0554,-0.02967 0.0756,-0.103339 0.13103,-0.131027 0.0395,-0.01978 0.0875,0 0.13102,0 0.0445,0 0.0875,0 0.13103,0 0.13597,0 0.41291,-0.02967 0.52349,0 0.13399,0.03461 0.25859,0.0974 0.39258,0.131027 0.0495,0.0099 0.37677,-0.01483 0.39259,0 0.0692,0.06922 0.0445,0.218048 0.13103,0.261559 0.11718,0.05834 0.26156,0 0.39258,0 0.34908,0 0.69801,0 1.04698,0 0.13103,0 0.267,-0.03461 0.39259,0 0.18739,0.0534 0.33572,0.20816 0.52351,0.261559 0.16762,0.04944 0.34908,0 0.52347,0 0.0445,0 0.0999,-0.02967 0.13102,0 0.0297,0.02967 -0.0297,0.09988 0,0.131027 0.0297,0.02967 0.0999,-0.02967 0.13103,0 0.0297,0.02967 -0.0297,0.09988 0,0.131027 0.0297,0.02967 0.092,-0.01978 0.13103,0 0.0554,0.02967 0.0796,0.09642 0.13102,0.131027 0.0811,0.05389 0.18048,0.07664 0.26156,0.131027 0.0514,0.03461 0.087,0.08752 0.13103,0.131026 0.0445,0.0445 0.10334,0.07565 0.13103,0.131027 0.0198,0.03956 -0.0297,0.09988 0,0.131027 0.0618,0.06181 0.20025,-0.0618 0.26156,0 0.0297,0.02967 -0.0346,0.104822 0,0.131027 0.15624,0.117183 0.35599,0.161188 0.52351,0.261559 0.0529,0.02967 0.0826,0.09246 0.13103,0.131027 0.17009,0.136466 0.33622,0.280348 0.52346,0.392586 0.0396,0.02472 0.0944,-0.02472 0.13103,0 0.10284,0.06823 0.15921,0.193327 0.26156,0.26156 0.0346,0.02472 0.087,0 0.13103,0 0.0445,0 0.17453,0 0.13102,0 -0.0875,0 -0.34907,0 -0.26156,0 0.13103,0 0.26848,0.03955 0.39259,0 0.0395,-0.01483 -0.0297,-0.09988 0,-0.131027 0.0297,-0.02967 0.092,0.01978 0.13103,0 0.0554,-0.02967 0.0756,-0.103338 0.13102,-0.131027 0.0396,-0.01978 0.092,0.01978 0.13103,0 0.0554,-0.02967 0.0722,-0.111249 0.13103,-0.131027 5.9e-4,-1.98e-4 0.39258,1.43e-4 0.39258,0 0.0297,-0.02967 -0.0297,-0.09988 0,-0.131027 0.0297,-0.02967 0.0875,0 0.13103,0 0.0445,0 0.087,0 0.13103,0 0.0445,0 0.13102,0.0445 0.13102,0 0,-0.0445 -0.13102,-0.0445 -0.13102,0 0,0.0445 0.087,0 0.13102,0 0.0445,0 0.0999,0.02967 0.13103,0 0.17454,-0.174538 -0.21805,-0.131027 0.13103,-0.131027"
       id="path4535"
       inkscape:connector-curvature="0" />
  </g>
</svg>
